# xmcd
#
# Track frame offsets:
#	150
#	23794
#	36052
#	48647
#	70771
#	84328
#	107304
#	134334
#
# Disc length: 2047 seconds
# Revision: 0
# Processed by: cddbd v1.5.2PL0 Copyright (c) Steve Scherf et al.
# Submitted via: dBpowerAMP V12.0
#
DISCID=5d07fd08
DTITLE=The Risky Biscuits - Water and Dirt
DYEAR=2017
DGENRE=Americana
TTITLE0=A Will Without
TTITLE1=Do the Math
TTITLE2=Almost Home
TTITLE3=Falling Onward
TTITLE4=Dirty Nights
TTITLE5=Searching California
TTITLE6=Feel the Words
TTITLE7=Water and Dirt
EXTD=
EXTT0=
EXTT1=
EXTT2=
EXTT3=
EXTT4=
EXTT5=
EXTT6=
EXTT7=
PLAYORDER=
